<svg width="57" height="56" viewBox="0 0 57 56" fill="none" xmlns="http://www.w3.org/2000/svg">
<path d="M35.0306 19.3846H21.7383C21.2976 19.3846 20.875 19.5597 20.5634 19.8713C20.2518 20.1829 20.0767 20.6055 20.0767 21.0462V34.3385C20.0767 34.7791 20.2518 35.2018 20.5634 35.5134C20.875 35.825 21.2976 36 21.7383 36H35.0306C35.4712 36 35.8939 35.825 36.2055 35.5134C36.5171 35.2018 36.6921 34.7791 36.6921 34.3385V21.0462C36.6921 20.6055 36.5171 20.1829 36.2055 19.8713C35.8939 19.5597 35.4712 19.3846 35.0306 19.3846ZM35.0306 34.3385H21.7383V21.0462H35.0306V34.3385ZM40.0152 20.2154V35.1693C40.0152 35.3896 39.9277 35.6009 39.7719 35.7567C39.6161 35.9125 39.4048 36 39.1844 36C38.9641 36 38.7528 35.9125 38.597 35.7567C38.4412 35.6009 38.3537 35.3896 38.3537 35.1693V20.2154C38.3537 19.9951 38.4412 19.7838 38.597 19.628C38.7528 19.4722 38.9641 19.3846 39.1844 19.3846C39.4048 19.3846 39.6161 19.4722 39.7719 19.628C39.9277 19.7838 40.0152 19.9951 40.0152 20.2154ZM18.4152 20.2154V35.1693C18.4152 35.3896 18.3277 35.6009 18.1719 35.7567C18.0161 35.9125 17.8048 36 17.5844 36C17.3641 36 17.1528 35.9125 16.997 35.7567C16.8412 35.6009 16.7537 35.3896 16.7537 35.1693V20.2154C16.7537 19.9951 16.8412 19.7838 16.997 19.628C17.1528 19.4722 17.3641 19.3846 17.5844 19.3846C17.8048 19.3846 18.0161 19.4722 18.1719 19.628C18.3277 19.7838 18.4152 19.9951 18.4152 20.2154Z" fill="url(#paint0_linear_1_164)"/>
<defs>
<linearGradient id="paint0_linear_1_164" x1="28.3844" y1="19.3846" x2="28.3844" y2="36" gradientUnits="userSpaceOnUse">
<stop stop-color="#EAEAEC"/>
<stop offset="1" stop-color="#82828A"/>
</linearGradient>
</defs>
</svg>
