<svg width="56" height="56" viewBox="0 0 56 56" fill="none" xmlns="http://www.w3.org/2000/svg">
<path d="M38.123 30.1846V36C38.123 36.4407 37.948 36.8633 37.6364 37.1749C37.3248 37.4865 36.9022 37.6615 36.4615 37.6615H19.8461C19.4054 37.6615 18.9828 37.4865 18.6712 37.1749C18.3596 36.8633 18.1846 36.4407 18.1846 36V30.1846C18.1846 29.9643 18.2721 29.753 18.4279 29.5972C18.5837 29.4414 18.795 29.3538 19.0153 29.3538C19.2357 29.3538 19.447 29.4414 19.6028 29.5972C19.7586 29.753 19.8461 29.9643 19.8461 30.1846V36H36.4615V30.1846C36.4615 29.9643 36.549 29.753 36.7048 29.5972C36.8606 29.4414 37.0719 29.3538 37.2923 29.3538C37.5126 29.3538 37.7239 29.4414 37.8797 29.5972C38.0355 29.753 38.123 29.9643 38.123 30.1846ZM27.566 30.7724C27.6432 30.8496 27.7348 30.9109 27.8357 30.9527C27.9365 30.9945 28.0446 31.016 28.1538 31.016C28.263 31.016 28.3711 30.9945 28.4719 30.9527C28.5728 30.9109 28.6644 30.8496 28.7416 30.7724L32.8954 26.6185C32.9726 26.5414 33.0338 26.4497 33.0756 26.3489C33.1174 26.248 33.1389 26.1399 33.1389 26.0308C33.1389 25.9216 33.1174 25.8135 33.0756 25.7127C33.0338 25.6118 32.9726 25.5202 32.8954 25.443C32.8182 25.3658 32.7266 25.3046 32.6257 25.2628C32.5249 25.221 32.4168 25.1995 32.3076 25.1995C32.1985 25.1995 32.0904 25.221 31.9895 25.2628C31.8887 25.3046 31.7971 25.3658 31.7199 25.443L28.9846 28.1793V18.5539C28.9846 18.3335 28.897 18.1222 28.7412 17.9664C28.5854 17.8106 28.3741 17.7231 28.1538 17.7231C27.9335 17.7231 27.7222 17.8106 27.5664 17.9664C27.4106 18.1222 27.323 18.3335 27.323 18.5539V28.1793L24.5877 25.443C24.4318 25.2871 24.2204 25.1995 24 25.1995C23.7795 25.1995 23.5681 25.2871 23.4122 25.443C23.2563 25.5989 23.1687 25.8103 23.1687 26.0308C23.1687 26.2512 23.2563 26.4627 23.4122 26.6185L27.566 30.7724Z" fill="url(#paint0_linear_1_168)"/>
<defs>
<linearGradient id="paint0_linear_1_168" x1="28.1538" y1="17.7231" x2="28.1538" y2="37.6615" gradientUnits="userSpaceOnUse">
<stop stop-color="#EAEAEC"/>
<stop offset="1" stop-color="#82828A"/>
</linearGradient>
</defs>
</svg>
