<svg width="56" height="56" viewBox="0 0 56 56" fill="none" xmlns="http://www.w3.org/2000/svg">
<path d="M36.9078 26.8619V36.8311C36.9078 37.2718 36.7327 37.6944 36.4211 38.006C36.1095 38.3176 35.6869 38.4926 35.2462 38.4926H20.2924C19.8517 38.4926 19.4291 38.3176 19.1175 38.006C18.8059 37.6944 18.6309 37.2718 18.6309 36.8311V26.8619C18.6309 26.4212 18.8059 25.9986 19.1175 25.687C19.4291 25.3754 19.8517 25.2003 20.2924 25.2003H22.7847C23.005 25.2003 23.2163 25.2878 23.3721 25.4436C23.5279 25.5994 23.6155 25.8108 23.6155 26.0311C23.6155 26.2514 23.5279 26.4627 23.3721 26.6185C23.2163 26.7743 23.005 26.8619 22.7847 26.8619H20.2924V36.8311H35.2462V26.8619H32.7539C32.5336 26.8619 32.3223 26.7743 32.1665 26.6185C32.0107 26.4627 31.9232 26.2514 31.9232 26.0311C31.9232 25.8108 32.0107 25.5994 32.1665 25.4436C32.3223 25.2878 32.5336 25.2003 32.7539 25.2003H35.2462C35.6869 25.2003 36.1095 25.3754 36.4211 25.687C36.7327 25.9986 36.9078 26.4212 36.9078 26.8619ZM24.2032 22.465L26.9385 19.7287V29.3542C26.9385 29.5745 27.0261 29.7858 27.1819 29.9416C27.3377 30.0974 27.549 30.1849 27.7693 30.1849C27.9897 30.1849 28.201 30.0974 28.3568 29.9416C28.5126 29.7858 28.6001 29.5745 28.6001 29.3542V19.7287L31.3354 22.465C31.4913 22.6209 31.7027 22.7085 31.9232 22.7085C32.1436 22.7085 32.355 22.6209 32.5109 22.465C32.6668 22.3091 32.7544 22.0977 32.7544 21.8772C32.7544 21.6568 32.6668 21.4454 32.5109 21.2895L28.3571 17.1356C28.2799 17.0584 28.1883 16.9971 28.0875 16.9553C27.9866 16.9135 27.8785 16.892 27.7693 16.892C27.6601 16.892 27.552 16.9135 27.4512 16.9553C27.3503 16.9971 27.2587 17.0584 27.1815 17.1356L23.0277 21.2895C22.8718 21.4454 22.7842 21.6568 22.7842 21.8772C22.7842 22.0977 22.8718 22.3091 23.0277 22.465C23.1836 22.6209 23.395 22.7085 23.6155 22.7085C23.8359 22.7085 24.0474 22.6209 24.2032 22.465Z" fill="url(#paint0_linear_1_166)"/>
<defs>
<linearGradient id="paint0_linear_1_166" x1="27.7693" y1="16.892" x2="27.7693" y2="38.4926" gradientUnits="userSpaceOnUse">
<stop stop-color="#EAEAEC"/>
<stop offset="1" stop-color="#82828A"/>
</linearGradient>
</defs>
</svg>
