<svg width="24" height="24" viewBox="0 0 24 24" fill="none" xmlns="http://www.w3.org/2000/svg">
<path d="M23.0625 14.25C23.0625 14.3992 23.0032 14.5423 22.8977 14.6478C22.7923 14.7532 22.6492 14.8125 22.5 14.8125H20.8125V16.5C20.8125 16.6492 20.7532 16.7923 20.6477 16.8978C20.5423 17.0032 20.3992 17.0625 20.25 17.0625C20.1008 17.0625 19.9577 17.0032 19.8522 16.8978C19.7468 16.7923 19.6875 16.6492 19.6875 16.5V14.8125H18C17.8508 14.8125 17.7077 14.7532 17.6022 14.6478C17.4968 14.5423 17.4375 14.3992 17.4375 14.25C17.4375 14.1008 17.4968 13.9577 17.6022 13.8523C17.7077 13.7468 17.8508 13.6875 18 13.6875H19.6875V12C19.6875 11.8508 19.7468 11.7077 19.8522 11.6023C19.9577 11.4968 20.1008 11.4375 20.25 11.4375C20.3992 11.4375 20.5423 11.4968 20.6477 11.6023C20.7532 11.7077 20.8125 11.8508 20.8125 12V13.6875H22.5C22.6492 13.6875 22.7923 13.7468 22.8977 13.8523C23.0032 13.9577 23.0625 14.1008 23.0625 14.25ZM5.24999 6.5625H6.93749V8.25C6.93749 8.39919 6.99676 8.54226 7.10225 8.64775C7.20774 8.75324 7.35081 8.8125 7.49999 8.8125C7.64918 8.8125 7.79225 8.75324 7.89774 8.64775C8.00323 8.54226 8.06249 8.39919 8.06249 8.25V6.5625H9.75C9.89918 6.5625 10.0423 6.50324 10.1477 6.39775C10.2532 6.29226 10.3125 6.14919 10.3125 6C10.3125 5.85082 10.2532 5.70774 10.1477 5.60226C10.0423 5.49677 9.89918 5.4375 9.75 5.4375H8.06249V3.75C8.06249 3.60082 8.00323 3.45774 7.89774 3.35226C7.79225 3.24677 7.64918 3.1875 7.49999 3.1875C7.35081 3.1875 7.20774 3.24677 7.10225 3.35226C6.99676 3.45774 6.93749 3.60082 6.93749 3.75V5.4375H5.24999C5.10081 5.4375 4.95774 5.49677 4.85225 5.60226C4.74676 5.70774 4.68749 5.85082 4.68749 6C4.68749 6.14919 4.74676 6.29226 4.85225 6.39775C4.95774 6.50324 5.10081 6.5625 5.24999 6.5625ZM17.25 18.1875H16.3125V17.25C16.3125 17.1008 16.2532 16.9577 16.1477 16.8523C16.0423 16.7468 15.8992 16.6875 15.75 16.6875C15.6008 16.6875 15.4577 16.7468 15.3522 16.8523C15.2468 16.9577 15.1875 17.1008 15.1875 17.25V18.1875H14.25C14.1008 18.1875 13.9577 18.2468 13.8522 18.3523C13.7468 18.4577 13.6875 18.6008 13.6875 18.75C13.6875 18.8992 13.7468 19.0423 13.8522 19.1478C13.9577 19.2532 14.1008 19.3125 14.25 19.3125H15.1875V20.25C15.1875 20.3992 15.2468 20.5423 15.3522 20.6478C15.4577 20.7532 15.6008 20.8125 15.75 20.8125C15.8992 20.8125 16.0423 20.7532 16.1477 20.6478C16.2532 20.5423 16.3125 20.3992 16.3125 20.25V19.3125H17.25C17.3992 19.3125 17.5423 19.2532 17.6477 19.1478C17.7532 19.0423 17.8125 18.8992 17.8125 18.75C17.8125 18.6008 17.7532 18.4577 17.6477 18.3523C17.5423 18.2468 17.3992 18.1875 17.25 18.1875ZM20.4281 7.36782L7.36687 20.4281C7.24499 20.55 7.1003 20.6467 6.94105 20.7127C6.7818 20.7786 6.61112 20.8126 6.43874 20.8126C6.26637 20.8126 6.09569 20.7786 5.93644 20.7127C5.77719 20.6467 5.6325 20.55 5.51062 20.4281L3.57093 18.4884C3.44904 18.3666 3.35235 18.2219 3.28638 18.0626C3.22042 17.9034 3.18646 17.7327 3.18646 17.5603C3.18646 17.3879 3.22042 17.2173 3.28638 17.058C3.35235 16.8988 3.44904 16.7541 3.57093 16.6322L16.6322 3.57188C16.7541 3.44999 16.8988 3.3533 17.058 3.28733C17.2173 3.22136 17.3879 3.18741 17.5603 3.18741C17.7327 3.18741 17.9034 3.22136 18.0626 3.28733C18.2219 3.3533 18.3666 3.44999 18.4884 3.57188L20.4281 5.51157C20.55 5.63344 20.6467 5.77814 20.7127 5.93739C20.7786 6.09664 20.8126 6.26732 20.8126 6.43969C20.8126 6.61206 20.7786 6.78275 20.7127 6.94199C20.6467 7.10124 20.55 7.24594 20.4281 7.36782ZM15.7041 10.5L13.5 8.29594L4.36687 17.4281C4.34944 17.4455 4.33561 17.4662 4.32617 17.489C4.31674 17.5117 4.31188 17.5361 4.31188 17.5608C4.31188 17.5854 4.31674 17.6098 4.32617 17.6326C4.33561 17.6553 4.34944 17.676 4.36687 17.6934L6.30656 19.6322C6.34169 19.6671 6.38921 19.6867 6.43874 19.6867C6.48828 19.6867 6.5358 19.6671 6.57093 19.6322L15.7041 10.5ZM19.6322 6.30657L17.6934 4.36782C17.676 4.35038 17.6553 4.33655 17.6326 4.32712C17.6098 4.31768 17.5854 4.31282 17.5608 4.31282C17.5361 4.31282 17.5117 4.31768 17.489 4.32712C17.4662 4.33655 17.4455 4.35038 17.4281 4.36782L14.295 7.5L16.5 9.705L19.6322 6.57188C19.6496 6.55446 19.6634 6.53379 19.6729 6.51102C19.6823 6.48826 19.6872 6.46386 19.6872 6.43922C19.6872 6.41458 19.6823 6.39018 19.6729 6.36742C19.6634 6.34466 19.6496 6.32398 19.6322 6.30657Z" fill="#EDEDED"/>
</svg>
