<svg width="57" height="56" viewBox="0 0 57 56" fill="none" xmlns="http://www.w3.org/2000/svg">
<path d="M39.3548 27.6941C39.355 30.3148 38.3231 32.8302 36.4825 34.6958C34.6419 36.5614 32.1407 37.6271 29.5202 37.6623H29.3866C26.8419 37.6676 24.3928 36.6936 22.5467 34.9422C22.4839 34.8854 22.4332 34.8166 22.3973 34.7398C22.3615 34.6631 22.3414 34.58 22.3381 34.4954C22.3348 34.4107 22.3484 34.3263 22.3782 34.247C22.4079 34.1678 22.4532 34.0952 22.5114 34.0337C22.5696 33.9721 22.6394 33.9228 22.7169 33.8886C22.7944 33.8544 22.8779 33.836 22.9626 33.8345C23.0472 33.833 23.1314 33.8484 23.21 33.8798C23.2886 33.9113 23.3602 33.9581 23.4205 34.0175C24.6639 35.19 26.2253 35.9701 27.9095 36.2603C29.5938 36.5505 31.3262 36.3379 32.8903 35.6492C34.4544 34.9605 35.7809 33.8261 36.7041 32.3879C37.6272 30.9496 38.1061 29.2712 38.0808 27.5623C38.0555 25.8534 37.5272 24.1899 36.562 22.7796C35.5967 21.3692 34.2372 20.2746 32.6534 19.6324C31.0696 18.9903 29.3316 18.8291 27.6567 19.169C25.9818 19.5089 24.4442 20.3348 23.236 21.5435L23.2158 21.5637L19.9953 24.5128H23.4481C23.6168 24.5128 23.7787 24.5798 23.898 24.6991C24.0173 24.8184 24.0843 24.9803 24.0843 25.149C24.0843 25.3178 24.0173 25.4796 23.898 25.5989C23.7787 25.7183 23.6168 25.7853 23.4481 25.7853H18.3579C18.1892 25.7853 18.0274 25.7183 17.908 25.5989C17.7887 25.4796 17.7217 25.3178 17.7217 25.149V20.0589C17.7217 19.8901 17.7887 19.7283 17.908 19.609C18.0274 19.4897 18.1892 19.4226 18.3579 19.4226C18.5267 19.4226 18.6885 19.4897 18.8079 19.609C18.9272 19.7283 18.9942 19.8901 18.9942 20.0589V23.7005L22.3484 20.6315C23.7439 19.2402 25.5204 18.2936 27.4536 17.9115C29.3867 17.5294 31.3898 17.7288 33.2097 18.4846C35.0296 19.2404 36.5846 20.5186 37.6784 22.1578C38.7721 23.7969 39.3555 25.7235 39.3548 27.6941Z" fill="url(#paint0_linear_1_171)"/>
<defs>
<linearGradient id="paint0_linear_1_171" x1="28.5382" y1="17.7223" x2="28.5382" y2="37.6623" gradientUnits="userSpaceOnUse">
<stop stop-color="#EAEAEC"/>
<stop offset="1" stop-color="#82828A"/>
</linearGradient>
</defs>
</svg>
