<svg width="56" height="56" viewBox="0 0 56 56" fill="none" xmlns="http://www.w3.org/2000/svg">
<path d="M21.3571 25.3039V18.5539C21.3571 18.3335 21.2696 18.1222 21.1138 17.9664C20.958 17.8106 20.7467 17.7231 20.5264 17.7231C20.306 17.7231 20.0947 17.8106 19.9389 17.9664C19.7831 18.1222 19.6956 18.3335 19.6956 18.5539V25.3039C18.9808 25.4869 18.3472 25.9026 17.8948 26.4855C17.4424 27.0683 17.1968 27.7852 17.1968 28.5231C17.1968 29.2609 17.4424 29.9778 17.8948 30.5607C18.3472 31.1436 18.9808 31.5593 19.6956 31.7423V36.8308C19.6956 37.0511 19.7831 37.2624 19.9389 37.4182C20.0947 37.574 20.306 37.6615 20.5264 37.6615C20.7467 37.6615 20.958 37.574 21.1138 37.4182C21.2696 37.2624 21.3571 37.0511 21.3571 36.8308V31.7423C22.0719 31.5593 22.7055 31.1436 23.1579 30.5607C23.6104 29.9778 23.856 29.2609 23.856 28.5231C23.856 27.7852 23.6104 27.0683 23.1579 26.4855C22.7055 25.9026 22.0719 25.4869 21.3571 25.3039ZM20.5264 30.1846C20.1977 30.1846 19.8765 30.0872 19.6033 29.9046C19.33 29.722 19.1171 29.4625 18.9913 29.1589C18.8656 28.8553 18.8326 28.5212 18.8968 28.1989C18.9609 27.8766 19.1191 27.5806 19.3515 27.3482C19.5839 27.1158 19.8799 26.9576 20.2022 26.8935C20.5245 26.8294 20.8586 26.8623 21.1622 26.988C21.4658 27.1138 21.7253 27.3267 21.9079 27.6C22.0905 27.8732 22.1879 28.1945 22.1879 28.5231C22.1879 28.9637 22.0129 29.3864 21.7013 29.698C21.3897 30.0096 20.967 30.1846 20.5264 30.1846ZM28.8341 20.3192V18.5539C28.8341 18.3335 28.7465 18.1222 28.5907 17.9664C28.4349 17.8106 28.2236 17.7231 28.0033 17.7231C27.783 17.7231 27.5717 17.8106 27.4159 17.9664C27.2601 18.1222 27.1725 18.3335 27.1725 18.5539V20.3192C26.4577 20.5023 25.8242 20.918 25.3717 21.5008C24.9193 22.0837 24.6737 22.8006 24.6737 23.5385C24.6737 24.2763 24.9193 24.9932 25.3717 25.5761C25.8242 26.159 26.4577 26.5747 27.1725 26.7577V36.8308C27.1725 37.0511 27.2601 37.2624 27.4159 37.4182C27.5717 37.574 27.783 37.6615 28.0033 37.6615C28.2236 37.6615 28.4349 37.574 28.5907 37.4182C28.7465 37.2624 28.8341 37.0511 28.8341 36.8308V26.7577C29.5489 26.5747 30.1824 26.159 30.6349 25.5761C31.0873 24.9932 31.3329 24.2763 31.3329 23.5385C31.3329 22.8006 31.0873 22.0837 30.6349 21.5008C30.1824 20.918 29.5489 20.5023 28.8341 20.3192ZM28.0033 25.2C27.6747 25.2 27.3534 25.1026 27.0802 24.92C26.807 24.7374 26.594 24.4779 26.4682 24.1743C26.3425 23.8707 26.3096 23.5366 26.3737 23.2143C26.4378 22.892 26.596 22.596 26.8284 22.3636C27.0608 22.1312 27.3568 21.973 27.6791 21.9089C28.0015 21.8447 28.3355 21.8776 28.6391 22.0034C28.9427 22.1292 29.2022 22.3421 29.3848 22.6154C29.5674 22.8886 29.6648 23.2098 29.6648 23.5385C29.6648 23.9791 29.4898 24.4018 29.1782 24.7134C28.8666 25.025 28.444 25.2 28.0033 25.2ZM38.8033 31.8462C38.8026 31.1094 38.5576 30.3937 38.1066 29.8112C37.6555 29.2286 37.0241 28.8121 36.311 28.6269V18.5539C36.311 18.3335 36.2235 18.1222 36.0677 17.9664C35.9119 17.8106 35.7006 17.7231 35.4802 17.7231C35.2599 17.7231 35.0486 17.8106 34.8928 17.9664C34.737 18.1222 34.6495 18.3335 34.6495 18.5539V28.6269C33.9346 28.8099 33.3011 29.2257 32.8486 29.8085C32.3962 30.3914 32.1506 31.1083 32.1506 31.8462C32.1506 32.584 32.3962 33.3009 32.8486 33.8838C33.3011 34.4667 33.9346 34.8824 34.6495 35.0654V36.8308C34.6495 37.0511 34.737 37.2624 34.8928 37.4182C35.0486 37.574 35.2599 37.6615 35.4802 37.6615C35.7006 37.6615 35.9119 37.574 36.0677 37.4182C36.2235 37.2624 36.311 37.0511 36.311 36.8308V35.0654C37.0241 34.8802 37.6555 34.4637 38.1066 33.8811C38.5576 33.2986 38.8026 32.5829 38.8033 31.8462ZM35.4802 33.5077C35.1516 33.5077 34.8304 33.4102 34.5571 33.2277C34.2839 33.0451 34.0709 32.7856 33.9452 32.482C33.8194 32.1784 33.7865 31.8443 33.8506 31.522C33.9147 31.1997 34.073 30.9036 34.3053 30.6713C34.5377 30.4389 34.8338 30.2807 35.1561 30.2165C35.4784 30.1524 35.8125 30.1853 36.1161 30.3111C36.4197 30.4369 36.6792 30.6498 36.8617 30.9231C37.0443 31.1963 37.1418 31.5175 37.1418 31.8462C37.1418 32.2868 36.9667 32.7094 36.6551 33.021C36.3435 33.3326 35.9209 33.5077 35.4802 33.5077Z" fill="url(#paint0_linear_1_162)"/>
<defs>
<linearGradient id="paint0_linear_1_162" x1="28" y1="17.7231" x2="28" y2="37.6615" gradientUnits="userSpaceOnUse">
<stop stop-color="#EAEAEC"/>
<stop offset="1" stop-color="#82828A"/>
</linearGradient>
</defs>
</svg>
