<svg width="143" height="19" viewBox="0 0 143 19" fill="none" xmlns="http://www.w3.org/2000/svg">
<path d="M9.384 18.36C8.184 18.36 7.072 18.136 6.048 17.688C5.024 17.224 4.128 16.584 3.36 15.768C2.608 14.952 2.016 14 1.584 12.912C1.168 11.808 0.96 10.624 0.96 9.36C0.96 8.096 1.168 6.92 1.584 5.832C2.016 4.744 2.608 3.8 3.36 3C4.128 2.184 5.024 1.552 6.048 1.104C7.072 0.639999 8.184 0.407999 9.384 0.407999C10.744 0.407999 12 0.695999 13.152 1.272C14.304 1.832 15.264 2.632 16.032 3.672C16.816 4.696 17.32 5.896 17.544 7.272H15.648C15.472 6.248 15.088 5.344 14.496 4.56C13.904 3.76 13.168 3.136 12.288 2.688C11.424 2.24 10.456 2.016 9.384 2.016C8.424 2.016 7.544 2.2 6.744 2.568C5.944 2.936 5.248 3.448 4.656 4.104C4.064 4.76 3.608 5.536 3.288 6.432C2.968 7.328 2.808 8.304 2.808 9.36C2.808 10.432 2.968 11.416 3.288 12.312C3.608 13.208 4.064 13.992 4.656 14.664C5.248 15.32 5.944 15.832 6.744 16.2C7.544 16.568 8.424 16.752 9.384 16.752C10.456 16.752 11.432 16.528 12.312 16.08C13.192 15.616 13.92 14.984 14.496 14.184C15.088 13.384 15.472 12.48 15.648 11.472H17.544C17.32 12.832 16.824 14.032 16.056 15.072C15.288 16.112 14.32 16.92 13.152 17.496C12 18.072 10.744 18.36 9.384 18.36ZM22.0196 10.632V18H20.3396V0.767999H22.0196V7.68C22.4036 6.928 22.9476 6.312 23.6516 5.832C24.3556 5.352 25.1636 5.112 26.0756 5.112C27.3876 5.112 28.4356 5.52 29.2196 6.336C30.0196 7.152 30.4196 8.304 30.4196 9.792V18H28.7396V10.368C28.7396 9.152 28.4676 8.216 27.9236 7.56C27.3956 6.904 26.6116 6.576 25.5716 6.576C24.9156 6.576 24.3156 6.752 23.7716 7.104C23.2276 7.44 22.7956 7.912 22.4756 8.52C22.1716 9.128 22.0196 9.832 22.0196 10.632ZM35.6368 11.232V18H33.9568V5.352H35.5168V8.232C35.9648 7.304 36.6208 6.56 37.4848 6C38.3488 5.44 39.3008 5.16 40.3408 5.16V6.912C39.4608 6.88 38.6608 7.032 37.9408 7.368C37.2368 7.704 36.6768 8.2 36.2608 8.856C35.8448 9.512 35.6368 10.304 35.6368 11.232ZM47.4349 18.24C46.5709 18.24 45.7709 18.08 45.0349 17.76C44.2989 17.44 43.6589 16.984 43.1149 16.392C42.5869 15.8 42.1709 15.104 41.8669 14.304C41.5789 13.504 41.4349 12.624 41.4349 11.664C41.4349 10.72 41.5789 9.848 41.8669 9.048C42.1709 8.248 42.5869 7.56 43.1149 6.984C43.6589 6.392 44.2989 5.936 45.0349 5.616C45.7709 5.296 46.5709 5.136 47.4349 5.136C48.3149 5.136 49.1229 5.296 49.8589 5.616C50.5949 5.936 51.2269 6.392 51.7549 6.984C52.2989 7.56 52.7149 8.248 53.0029 9.048C53.3069 9.848 53.4589 10.72 53.4589 11.664C53.4589 12.624 53.3069 13.504 53.0029 14.304C52.7149 15.104 52.2989 15.8 51.7549 16.392C51.2269 16.984 50.5949 17.44 49.8589 17.76C49.1229 18.08 48.3149 18.24 47.4349 18.24ZM47.4349 16.8C48.2669 16.8 49.0029 16.592 49.6429 16.176C50.2989 15.744 50.8109 15.144 51.1789 14.376C51.5629 13.608 51.7549 12.704 51.7549 11.664C51.7549 10.624 51.5629 9.728 51.1789 8.976C50.8109 8.224 50.2989 7.64 49.6429 7.224C49.0029 6.808 48.2669 6.6 47.4349 6.6C46.6189 6.6 45.8829 6.808 45.2269 7.224C44.5869 7.64 44.0749 8.224 43.6909 8.976C43.3229 9.728 43.1389 10.624 43.1389 11.664C43.1389 12.704 43.3229 13.608 43.6909 14.376C44.0749 15.144 44.5869 15.744 45.2269 16.176C45.8829 16.592 46.6189 16.8 47.4349 16.8ZM57.8556 18H56.1756V5.352H57.7356V7.728C58.1676 6.912 58.7356 6.272 59.4396 5.808C60.1596 5.344 60.9676 5.112 61.8636 5.112C62.8556 5.112 63.6956 5.368 64.3836 5.88C65.0876 6.392 65.5676 7.112 65.8236 8.04C66.2076 7.144 66.7836 6.432 67.5516 5.904C68.3196 5.376 69.1996 5.112 70.1916 5.112C71.5036 5.112 72.5356 5.528 73.2876 6.36C74.0556 7.176 74.4396 8.32 74.4396 9.792V18H72.7836V10.344C72.7836 9.128 72.5116 8.2 71.9676 7.56C71.4396 6.904 70.6636 6.576 69.6396 6.576C68.9996 6.576 68.4156 6.752 67.8876 7.104C67.3596 7.44 66.9356 7.912 66.6156 8.52C66.3116 9.112 66.1596 9.8 66.1596 10.584V18H64.4796V10.344C64.4796 9.128 64.2156 8.2 63.6876 7.56C63.1596 6.904 62.3756 6.576 61.3356 6.576C60.6956 6.576 60.1036 6.752 59.5596 7.104C59.0316 7.44 58.6156 7.912 58.3116 8.52C58.0076 9.112 57.8556 9.8 57.8556 10.584V18ZM85.7484 18V15.696C85.3804 16.48 84.8284 17.104 84.0924 17.568C83.3564 18.016 82.4924 18.24 81.5004 18.24C80.1884 18.24 79.1404 17.904 78.3564 17.232C77.5724 16.544 77.1804 15.632 77.1804 14.496C77.1804 13.264 77.6684 12.336 78.6444 11.712C79.6204 11.072 81.0684 10.752 82.9884 10.752C83.3724 10.752 83.7484 10.76 84.1164 10.776C84.4844 10.792 84.9724 10.832 85.5804 10.896V9.816C85.5804 8.76 85.3084 7.936 84.7644 7.344C84.2364 6.752 83.4924 6.456 82.5324 6.456C81.5084 6.456 80.6924 6.76 80.0844 7.368C79.4764 7.96 79.1644 8.768 79.1484 9.792H77.6124C77.6284 8.848 77.8444 8.032 78.2604 7.344C78.6764 6.64 79.2444 6.096 79.9644 5.712C80.7004 5.312 81.5484 5.112 82.5084 5.112C83.9964 5.112 85.1484 5.52 85.9644 6.336C86.7804 7.152 87.1884 8.296 87.1884 9.768V18H85.7484ZM78.7884 14.448C78.7884 15.216 79.0604 15.84 79.6044 16.32C80.1484 16.784 80.8604 17.016 81.7404 17.016C82.9244 17.016 83.8604 16.664 84.5484 15.96C85.2364 15.24 85.5804 14.288 85.5804 13.104V11.976C85.0364 11.928 84.5644 11.896 84.1644 11.88C83.7804 11.864 83.4124 11.856 83.0604 11.856C81.6364 11.856 80.5644 12.072 79.8444 12.504C79.1404 12.92 78.7884 13.568 78.7884 14.448ZM102.578 18L92.5224 3.312V18H90.8424V0.767999H92.8344L102.794 15.264V0.767999H104.498V18H102.578ZM109.957 18H108.277V5.352H109.957V18ZM110.461 2.424C110.461 2.792 110.333 3.096 110.077 3.336C109.837 3.576 109.509 3.696 109.093 3.696C108.709 3.696 108.389 3.576 108.133 3.336C107.877 3.096 107.749 2.792 107.749 2.424C107.749 2.056 107.877 1.76 108.133 1.536C108.389 1.296 108.709 1.176 109.093 1.176C109.509 1.176 109.837 1.296 110.077 1.536C110.333 1.76 110.461 2.056 110.461 2.424ZM115.277 11.232V18H113.597V5.352H115.157V8.232C115.605 7.304 116.261 6.56 117.125 6C117.989 5.44 118.941 5.16 119.981 5.16V6.912C119.101 6.88 118.301 7.032 117.581 7.368C116.877 7.704 116.317 8.2 115.901 8.856C115.485 9.512 115.277 10.304 115.277 11.232ZM132.013 5.352L127.141 18H125.389L120.565 5.352H122.365L126.325 16.032L130.285 5.352H132.013ZM141.483 18V15.696C141.115 16.48 140.563 17.104 139.827 17.568C139.091 18.016 138.227 18.24 137.235 18.24C135.923 18.24 134.875 17.904 134.091 17.232C133.307 16.544 132.915 15.632 132.915 14.496C132.915 13.264 133.403 12.336 134.379 11.712C135.355 11.072 136.803 10.752 138.723 10.752C139.107 10.752 139.483 10.76 139.851 10.776C140.219 10.792 140.707 10.832 141.315 10.896V9.816C141.315 8.76 141.043 7.936 140.499 7.344C139.971 6.752 139.227 6.456 138.267 6.456C137.243 6.456 136.427 6.76 135.819 7.368C135.211 7.96 134.899 8.768 134.883 9.792H133.347C133.363 8.848 133.579 8.032 133.995 7.344C134.411 6.64 134.979 6.096 135.699 5.712C136.435 5.312 137.283 5.112 138.243 5.112C139.731 5.112 140.883 5.52 141.699 6.336C142.515 7.152 142.923 8.296 142.923 9.768V18H141.483ZM134.523 14.448C134.523 15.216 134.795 15.84 135.339 16.32C135.883 16.784 136.595 17.016 137.475 17.016C138.659 17.016 139.595 16.664 140.283 15.96C140.971 15.24 141.315 14.288 141.315 13.104V11.976C140.771 11.928 140.299 11.896 139.899 11.88C139.515 11.864 139.147 11.856 138.795 11.856C137.371 11.856 136.299 12.072 135.579 12.504C134.875 12.92 134.523 13.568 134.523 14.448Z" fill="url(#paint0_linear_1_52)"/>
<defs>
<linearGradient id="paint0_linear_1_52" x1="0" y1="-7" x2="13.4682" y2="54.0277" gradientUnits="userSpaceOnUse">
<stop stop-color="white"/>
<stop offset="1" stop-color="#71717A"/>
</linearGradient>
</defs>
</svg>
